<svg width="73" height="12" viewBox="0 0 73 12" fill="none" xmlns="http://www.w3.org/2000/svg">
<path d="M5.936 11.28H4.224V0.559998H5.936V11.28ZM10.144 2.112H0V0.559998H10.144V2.112Z" fill="#06529D"/>
<path d="M19.5229 11.28H17.8109V6.96C17.8109 6.16 17.6242 5.58933 17.2509 5.248C16.8775 4.896 16.2749 4.72 15.4429 4.72C14.8135 4.72 14.3122 4.832 13.9389 5.056C13.5655 5.26933 13.2935 5.57866 13.1229 5.984C12.9629 6.37866 12.8829 6.85866 12.8829 7.424L12.5469 7.44L12.6269 5.76H12.9789C13.0749 5.312 13.2455 4.89066 13.4909 4.496C13.7469 4.10133 14.1042 3.78133 14.5629 3.536C15.0215 3.29066 15.5869 3.168 16.2589 3.168C16.9842 3.168 17.5869 3.31733 18.0669 3.616C18.5575 3.904 18.9202 4.304 19.1549 4.816C19.4002 5.31733 19.5229 5.89333 19.5229 6.544V11.28ZM12.8829 11.28H11.1549V0.559998H12.8829V11.28Z" fill="#06529D"/>
<path d="M25.0767 11.44C24.2127 11.44 23.4554 11.28 22.8048 10.96C22.1541 10.64 21.6474 10.1707 21.2847 9.552C20.9328 8.93333 20.7568 8.18666 20.7568 7.312C20.7568 6.48 20.9328 5.75466 21.2847 5.136C21.6474 4.51733 22.1488 4.03733 22.7887 3.696C23.4287 3.344 24.1807 3.168 25.0448 3.168C25.8661 3.168 26.5861 3.31733 27.2048 3.616C27.8341 3.904 28.3194 4.33066 28.6608 4.896C29.0128 5.45066 29.1888 6.13333 29.1888 6.944C29.1888 7.08266 29.1834 7.216 29.1728 7.344C29.1621 7.46133 29.1461 7.57866 29.1248 7.696H21.8608V6.736H27.9888L27.5408 7.328C27.5514 7.22133 27.5567 7.12 27.5567 7.024C27.5567 6.91733 27.5567 6.81066 27.5567 6.704C27.5567 5.968 27.3434 5.424 26.9167 5.072C26.5007 4.70933 25.8661 4.528 25.0128 4.528C24.0634 4.528 23.3861 4.74666 22.9808 5.184C22.5754 5.62133 22.3727 6.25066 22.3727 7.072V7.488C22.3727 8.32 22.5754 8.95466 22.9808 9.392C23.3861 9.82933 24.0687 10.048 25.0287 10.048C25.8608 10.048 26.4581 9.92 26.8207 9.664C27.1941 9.39733 27.3808 9.02933 27.3808 8.56V8.432H29.1088V8.576C29.1088 9.14133 28.9328 9.64266 28.5808 10.08C28.2394 10.5067 27.7647 10.8427 27.1567 11.088C26.5594 11.3227 25.8661 11.44 25.0767 11.44Z" fill="#06529D"/>
<path d="M34.9454 11.28H33.2174V0.559998H34.9454V11.28ZM41.5054 6.976H33.7454V5.44H41.5054V6.976ZM41.7454 2.112H33.7454V0.559998H41.7454V2.112Z" fill="#06529D"/>
<path d="M44.7579 11.28H43.0299V3.328H44.7579V11.28ZM44.7579 2.4H43.0299V0.559998H44.7579V2.4Z" fill="#06529D"/>
<path d="M48.086 11.28H46.358V0.559998H48.086V11.28Z" fill="#06529D"/>
<path d="M54.9021 11.28H53.0781C52.2248 11.28 51.5475 11.072 51.0461 10.656C50.5555 10.24 50.3101 9.552 50.3101 8.592V1.584H52.0221V8.496C52.0221 8.98666 52.1395 9.31733 52.3741 9.488C52.6088 9.648 52.9715 9.728 53.4621 9.728H54.9021V11.28ZM54.9021 4.768H48.9661V3.328H54.9021V4.768Z" fill="#06529D"/>
<path d="M59.983 11.44C59.119 11.44 58.3617 11.28 57.711 10.96C57.0603 10.64 56.5537 10.1707 56.191 9.552C55.839 8.93333 55.663 8.18666 55.663 7.312C55.663 6.48 55.839 5.75466 56.191 5.136C56.5537 4.51733 57.055 4.03733 57.695 3.696C58.335 3.344 59.087 3.168 59.951 3.168C60.7723 3.168 61.4923 3.31733 62.111 3.616C62.7403 3.904 63.2257 4.33066 63.567 4.896C63.919 5.45066 64.095 6.13333 64.095 6.944C64.095 7.08266 64.0897 7.216 64.079 7.344C64.0683 7.46133 64.0523 7.57866 64.031 7.696H56.767V6.736H62.895L62.447 7.328C62.4577 7.22133 62.463 7.12 62.463 7.024C62.463 6.91733 62.463 6.81066 62.463 6.704C62.463 5.968 62.2497 5.424 61.823 5.072C61.407 4.70933 60.7723 4.528 59.919 4.528C58.9697 4.528 58.2923 4.74666 57.887 5.184C57.4817 5.62133 57.279 6.25066 57.279 7.072V7.488C57.279 8.32 57.4817 8.95466 57.887 9.392C58.2923 9.82933 58.975 10.048 59.935 10.048C60.767 10.048 61.3643 9.92 61.727 9.664C62.1003 9.39733 62.287 9.02933 62.287 8.56V8.432H64.015V8.576C64.015 9.14133 63.839 9.64266 63.487 10.08C63.1457 10.5067 62.671 10.8427 62.063 11.088C61.4657 11.3227 60.7723 11.44 59.983 11.44Z" fill="#06529D"/>
<path d="M67.1172 11.28H65.3893V3.328H66.9733V5.584L67.1172 5.664V11.28ZM67.1172 6.816H66.7333V5.472H67.0853C67.1599 5.03466 67.3092 4.64533 67.5332 4.304C67.7572 3.952 68.0559 3.67466 68.4293 3.472C68.8133 3.26933 69.2773 3.168 69.8213 3.168C70.4293 3.168 70.9252 3.296 71.3092 3.552C71.6933 3.808 71.9706 4.14933 72.1413 4.576C72.3226 5.00266 72.4133 5.46666 72.4133 5.968V7.008H70.7012V6.304C70.7012 5.728 70.5732 5.30666 70.3173 5.04C70.0613 4.77333 69.6346 4.64 69.0372 4.64C68.3546 4.64 67.8639 4.82666 67.5652 5.2C67.2666 5.57333 67.1172 6.112 67.1172 6.816Z" fill="#06529D"/>
</svg>
