<svg width="57" height="16" viewBox="0 0 57 16" fill="none" xmlns="http://www.w3.org/2000/svg">
<path d="M12.2864 12.7619H9.80587L6.06568 7.42857H2.09295V5.44762H6.02693L9.82525 0H12.3058L7.77105 6.30476L12.2864 12.7619ZM2.09295 12.7619H0V0H2.09295V12.7619Z" fill="#0053B6"/>
<path d="M18.1463 12.9524C17.0869 12.9524 16.1503 12.7492 15.3364 12.3429C14.5353 11.9238 13.9088 11.346 13.4566 10.6095C13.0173 9.86032 12.7977 9.00317 12.7977 8.03809C12.7977 7.04762 13.0173 6.18413 13.4566 5.44762C13.9088 4.71111 14.5353 4.13968 15.3364 3.73333C16.1503 3.31429 17.0869 3.10476 18.1463 3.10476C19.2316 3.10476 20.1747 3.31429 20.9757 3.73333C21.7767 4.13968 22.3968 4.71111 22.8361 5.44762C23.2883 6.18413 23.5144 7.04762 23.5144 8.03809C23.5144 9.00317 23.2883 9.86032 22.8361 10.6095C22.3968 11.346 21.7767 11.9238 20.9757 12.3429C20.1747 12.7492 19.2316 12.9524 18.1463 12.9524ZM18.1463 11.1238C19.322 11.1238 20.1682 10.8635 20.685 10.3429C21.2018 9.80952 21.4602 9.04127 21.4602 8.03809C21.4602 7.03492 21.2018 6.26667 20.685 5.73333C20.1682 5.1873 19.322 4.91429 18.1463 4.91429C16.9836 4.91429 16.1438 5.1873 15.627 5.73333C15.1103 6.26667 14.8519 7.03492 14.8519 8.03809C14.8519 9.04127 15.1103 9.80952 15.627 10.3429C16.1438 10.8635 16.9836 11.1238 18.1463 11.1238Z" fill="#0053B6"/>
<path d="M30.9632 12.9524C29.8909 12.9524 29.0124 12.6921 28.3277 12.1714C27.6429 11.6508 27.2037 10.9587 27.0099 10.0952H26.5642V8.19048H26.9324C26.9324 8.8254 27.068 9.36508 27.3393 9.80952C27.6106 10.2413 27.9918 10.5651 28.4827 10.781C28.9866 10.9841 29.5744 11.0857 30.2462 11.0857C30.9439 11.0857 31.5317 10.9905 32.0097 10.8C32.5007 10.5968 32.8753 10.273 33.1337 9.82857C33.3921 9.38413 33.5213 8.7873 33.5213 8.03809C33.5213 7.27619 33.3921 6.67302 33.1337 6.22857C32.8753 5.78413 32.5007 5.46667 32.0097 5.27619C31.5317 5.08571 30.9568 4.99048 30.285 4.99048C29.2127 4.99048 28.3858 5.24444 27.8044 5.75238C27.2231 6.24762 26.9324 7.00317 26.9324 8.01905H26.5642V5.92381H26.9324C27.1262 5.04762 27.559 4.3619 28.2308 3.86667C28.9155 3.35873 29.8199 3.10476 30.9439 3.10476C31.9387 3.10476 32.7849 3.31429 33.4825 3.73333C34.1802 4.13968 34.7099 4.71111 35.0716 5.44762C35.4334 6.18413 35.6143 7.04762 35.6143 8.03809C35.6143 9.00317 35.4334 9.86032 35.0716 10.6095C34.7228 11.346 34.1996 11.9238 33.5019 12.3429C32.8172 12.7492 31.971 12.9524 30.9632 12.9524ZM26.9324 16H24.8394V3.29524H26.758V6.51429H26.9324V16Z" fill="#0053B6"/>
<path d="M38.9641 12.7619H36.8712V3.29524H38.7897V5.98095L38.9641 6.07619V12.7619ZM38.9641 7.44762H38.499V5.84762H38.9254C39.0158 5.32698 39.1967 4.86349 39.468 4.45714C39.7393 4.0381 40.101 3.70794 40.5532 3.46667C41.0183 3.2254 41.5803 3.10476 42.2392 3.10476C42.9756 3.10476 43.5764 3.25714 44.0415 3.5619C44.5066 3.86667 44.8425 4.27302 45.0492 4.78095C45.2688 5.28889 45.3786 5.84127 45.3786 6.4381V7.67619H43.3051V6.8381C43.3051 6.15238 43.15 5.65079 42.84 5.33333C42.5299 5.01587 42.0131 4.85714 41.2896 4.85714C40.4628 4.85714 39.8685 5.07936 39.5067 5.52381C39.145 5.96825 38.9641 6.60952 38.9641 7.44762Z" fill="#0053B6"/>
<path d="M50.5109 12.9524C49.6066 12.9524 48.8573 12.7746 48.263 12.419C47.6687 12.0635 47.2229 11.5873 46.9258 10.9905C46.6286 10.3937 46.4801 9.72698 46.4801 8.99048V3.29524H48.5536V8.4381C48.5536 9.31429 48.7733 9.98095 49.2125 10.4381C49.6647 10.8825 50.4011 11.1048 51.4218 11.1048C52.4941 11.1048 53.2757 10.8444 53.7666 10.3238C54.2705 9.79048 54.5224 9.00952 54.5224 7.98095L54.8906 7.96191L55.0069 9.82857H54.5612C54.4708 10.3619 54.264 10.8635 53.9411 11.3333C53.6181 11.8032 53.1723 12.1905 52.6039 12.4952C52.0484 12.8 51.3507 12.9524 50.5109 12.9524ZM56.6154 12.7619H54.6968V9.79048L54.5224 9.69524V3.29524H56.6154V12.7619Z" fill="#0053B6"/>
<path d="M16.8962 2.34524H14.6252V0.113096H16.8962V2.34524Z" fill="#0053B6"/>
<path d="M21.741 2.34524H19.47V0.113096H21.741V2.34524Z" fill="#0053B6"/>
</svg>
