<svg width="71" height="21" viewBox="0 0 71 21" fill="none" xmlns="http://www.w3.org/2000/svg">
<path d="M15.358 16.0417H12.2573L7.58211 9.37507H2.61619V6.89888H7.53366L12.2816 0.0893555H15.3822L9.71382 7.97031L15.358 16.0417ZM2.61619 16.0417H0V0.0893555H2.61619V16.0417Z" fill="white"/>
<path d="M22.6829 16.2798C21.3587 16.2798 20.1878 16.0259 19.1704 15.5179C18.1692 14.9941 17.3859 14.2719 16.8207 13.3513C16.2716 12.4148 15.9971 11.3433 15.9971 10.137C15.9971 8.89888 16.2716 7.81951 16.8207 6.89888C17.3859 5.97824 18.1692 5.26396 19.1704 4.75602C20.1878 4.23221 21.3587 3.97031 22.6829 3.97031C24.0395 3.97031 25.2184 4.23221 26.2196 4.75602C27.2209 5.26396 27.996 5.97824 28.5451 6.89888C29.1103 7.81951 29.393 8.89888 29.393 10.137C29.393 11.3433 29.1103 12.4148 28.5451 13.3513C27.996 14.2719 27.2209 14.9941 26.2196 15.5179C25.2184 16.0259 24.0395 16.2798 22.6829 16.2798ZM22.6829 13.9941C24.1525 13.9941 25.2103 13.6687 25.8563 13.0179C26.5022 12.3513 26.8252 11.3909 26.8252 10.137C26.8252 8.88301 26.5022 7.92269 25.8563 7.25602C25.2103 6.57348 24.1525 6.23221 22.6829 6.23221C21.2295 6.23221 20.1798 6.57348 19.5338 7.25602C18.8878 7.92269 18.5648 8.88301 18.5648 10.137C18.5648 11.3909 18.8878 12.3513 19.5338 13.0179C20.1798 13.6687 21.2295 13.9941 22.6829 13.9941Z" fill="white"/>
<path d="M38.7041 16.2798C37.3637 16.2798 36.2655 15.9544 35.4096 15.3036C34.5537 14.6528 34.0046 13.7878 33.7624 12.7084H33.2052V10.3275H33.6655C33.6655 11.1211 33.835 11.7957 34.1742 12.3513C34.5133 12.8909 34.9897 13.2957 35.6034 13.5655C36.2332 13.8195 36.968 13.9465 37.8078 13.9465C38.6798 13.9465 39.4146 13.8275 40.0121 13.5894C40.6258 13.3354 41.0942 12.9306 41.4171 12.3751C41.7401 11.8195 41.9016 11.0735 41.9016 10.137C41.9016 9.18459 41.7401 8.43062 41.4171 7.87507C41.0942 7.31951 40.6258 6.92269 40.0121 6.68459C39.4146 6.4465 38.696 6.32745 37.8562 6.32745C36.5158 6.32745 35.4823 6.64491 34.7555 7.27983C34.0288 7.89888 33.6655 8.84332 33.6655 10.1132H33.2052V7.49412H33.6655C33.9077 6.39888 34.4487 5.54174 35.2885 4.92269C36.1444 4.28777 37.2748 3.97031 38.6798 3.97031C39.9233 3.97031 40.9811 4.23221 41.8532 4.75602C42.7252 5.26396 43.3874 5.97824 43.8395 6.89888C44.2917 7.81951 44.5178 8.89888 44.5178 10.137C44.5178 11.3433 44.2917 12.4148 43.8395 13.3513C43.4035 14.2719 42.7495 14.9941 41.8774 15.5179C41.0215 16.0259 39.9637 16.2798 38.7041 16.2798ZM33.6655 20.0894H31.0493V4.2084H33.4474V8.23221H33.6655V20.0894Z" fill="white"/>
<path d="M48.7052 16.0417H46.089V4.2084H48.4871V7.56555L48.7052 7.68459V16.0417ZM48.7052 9.39888H48.1238V7.39888H48.6567C48.7697 6.74809 48.9958 6.16872 49.335 5.66078C49.6741 5.13697 50.1263 4.72428 50.6915 4.42269C51.2729 4.1211 51.9754 3.97031 52.799 3.97031C53.7195 3.97031 54.4705 4.16078 55.0518 4.54174C55.6332 4.92269 56.0531 5.43062 56.3115 6.06555C56.586 6.70047 56.7233 7.39094 56.7233 8.13697V9.68459H54.1313V8.63697C54.1313 7.77983 53.9375 7.15285 53.5499 6.75602C53.1624 6.3592 52.5164 6.16078 51.612 6.16078C50.5785 6.16078 49.8356 6.43856 49.3834 6.99412C48.9312 7.54967 48.7052 8.35126 48.7052 9.39888Z" fill="white"/>
<path d="M63.1387 16.2798C62.0082 16.2798 61.0716 16.0576 60.3287 15.6132C59.5858 15.1687 59.0287 14.5735 58.6572 13.8275C58.2858 13.0814 58.1001 12.2481 58.1001 11.3274V4.2084H60.692V10.637C60.692 11.7322 60.9666 12.5655 61.5157 13.137C62.0809 13.6925 63.0014 13.9703 64.2772 13.9703C65.6176 13.9703 66.5946 13.6449 67.2083 12.9941C67.8381 12.3274 68.153 11.3513 68.153 10.0655L68.6133 10.0417L68.7586 12.3751H68.2015C68.0884 13.0417 67.83 13.6687 67.4263 14.256C67.0226 14.8433 66.4654 15.3275 65.7549 15.7084C65.0604 16.0894 64.1884 16.2798 63.1387 16.2798ZM70.7692 16.0417H68.371V12.3274L68.153 12.2084V4.2084H70.7692V16.0417Z" fill="white"/>
<path d="M21.1203 3.0209H18.2815V0.230725H21.1203V3.0209Z" fill="white"/>
<path d="M27.1763 3.0209H24.3375V0.230725H27.1763V3.0209Z" fill="white"/>
</svg>
