<svg width="33" height="32" viewBox="0 0 33 32" fill="none" xmlns="http://www.w3.org/2000/svg">
<path fillRule="evenodd" clipRule="evenodd" d="M15.0806 1.94683C15.3378 2.38256 15.1988 2.94772 14.7702 3.20915C13.5022 3.98254 11.5437 5.36185 9.82477 6.96166C8.96599 7.7609 8.1836 8.59986 7.57905 9.43113C6.96884 10.2702 6.57636 11.0518 6.43404 11.7391C6.43073 11.755 6.42765 11.7705 6.42479 11.7854C6.64664 11.7101 6.93147 11.5844 7.28031 11.4058C7.73949 11.1707 8.25218 10.8745 8.8006 10.5529C8.88858 10.5013 8.97771 10.4488 9.06778 10.3959C10.0643 9.80989 11.1755 9.15641 12.1099 8.79575C12.6088 8.60319 13.1846 8.44087 13.7251 8.49671C14.0133 8.52649 14.3229 8.62147 14.5979 8.83511C14.8768 9.05183 15.0589 9.34319 15.1631 9.66093C15.2654 9.9727 15.266 10.2952 15.2357 10.5731C15.2044 10.8596 15.1326 11.1626 15.0379 11.4691C14.8487 12.0815 14.5401 12.7953 14.1557 13.567C13.3846 15.1152 12.2533 17.0056 10.9811 18.9804C8.43286 22.9359 5.26363 27.3152 3.12215 30.1413C2.81712 30.5439 2.24882 30.6189 1.85282 30.3088C1.45682 29.9987 1.38307 29.421 1.6881 29.0184C3.81243 26.2149 6.95211 21.8756 9.46675 17.9723C10.7259 16.0178 11.8146 14.1937 12.5407 12.7358C12.9049 12.0045 13.1643 11.3924 13.3109 10.9177C13.3842 10.6807 13.4224 10.4999 13.4366 10.37C13.4382 10.3547 13.4395 10.3408 13.4404 10.3282C13.3057 10.3395 13.0828 10.3885 12.7525 10.516C11.9632 10.8207 10.979 11.3987 9.9366 12.0109C9.85976 12.056 9.7826 12.1013 9.70518 12.1467C9.15908 12.467 8.60532 12.7877 8.09451 13.0493C7.59572 13.3046 7.07661 13.5361 6.60816 13.6422C6.19971 13.7347 5.45262 13.8141 4.94416 13.214C4.4847 12.6717 4.54548 11.926 4.66271 11.36C4.87961 10.3126 5.43384 9.28551 6.12348 8.33722C6.81879 7.38115 7.6894 6.45416 8.60243 5.60442C10.4271 3.90627 12.4875 2.45549 13.8388 1.63125C14.2675 1.36982 14.8234 1.51111 15.0806 1.94683ZM6.06238 11.8673C6.06238 11.8673 6.0696 11.8664 6.08119 11.8678C6.0677 11.8685 6.06238 11.8673 6.06238 11.8673Z" fill="#262626"/>
<path d="M27.8637 3.85574C28.2401 3.81415 28.5997 4.02521 28.7525 4.37742L31.4261 10.5401C31.5379 10.7978 31.5221 11.0942 31.3836 11.3382L27.2751 18.5721C27.1365 18.816 26.8919 18.9782 26.6165 19.0086L20.0295 19.7362C19.6531 19.7778 19.2935 19.5668 19.1407 19.2145L16.4671 13.0518C16.3553 12.7942 16.3711 12.4977 16.5096 12.2538L20.6182 5.01983C20.7567 4.77593 21.0013 4.6138 21.2768 4.58337L27.8637 3.85574Z" fill="#262626"/>
<path d="M31.218 21.4017C31.218 22.305 30.4976 23.0374 29.609 23.0374C28.7203 23.0374 28 22.305 28 21.4017C28 20.4983 28.7203 19.766 29.609 19.766C30.4976 19.766 31.218 20.4983 31.218 21.4017Z" fill="#262626"/>
</svg>
